<svg width="55" height="48" viewBox="0 0 55 48" fill="none" xmlns="http://www.w3.org/2000/svg">
<path d="M33.0891 16.0315L41.4783 2.84849C41.7468 2.42647 42.4001 2.61671 42.4001 3.11693V12.4999C42.4001 12.5551 42.4449 12.5999 42.5001 12.5999H48.4398C48.8443 12.5999 49.0814 13.0552 48.8494 13.3866L40.5097 25.3005C40.2294 25.7009 39.6001 25.5026 39.6001 25.0137V16.8999C39.6001 16.8447 39.5553 16.7999 39.5001 16.7999H33.5109C33.1164 16.7999 32.8773 16.3643 33.0891 16.0315Z" stroke="#7E7E7E" stroke-width="2"/>
<path d="M5.33325 24.3334V21.2277C5.33325 19.719 6.52716 18.496 7.99992 18.496M5.33325 24.3334C5.33325 25.8421 6.52716 27.0651 7.99992 27.0651H23.9999C25.4727 27.0651 26.6666 25.8421 26.6666 24.3334M5.33325 24.3334V28.5123C5.33325 29.5181 6.12919 30.3334 7.11103 30.3334H8.88881C9.87065 30.3334 10.6666 29.5181 10.6666 28.5123V27.0651M26.6666 24.3334V21.2277C26.6666 19.719 25.4727 18.496 23.9999 18.496H7.99992M26.6666 24.3334V28.5123C26.6666 29.5181 25.8706 30.3334 24.8888 30.3334H23.111C22.1292 30.3334 21.3333 29.5181 21.3333 28.5123V27.0651M7.99992 18.496L9.42577 13.0186C9.6333 12.2214 10.3381 11.6667 11.1435 11.6667H20.9408C21.706 11.6667 22.3854 12.1683 22.6273 12.912L24.4444 18.496M8.44436 22.5936H11.5555M20.4444 22.5936H23.5555" stroke="#7E7E7E" stroke-width="2" stroke-linecap="round" stroke-linejoin="round"/>
<path d="M38.1667 40.375L34 36M34 36L38.1667 31.625M34 36H44" stroke="#7E7E7E" stroke-width="2" stroke-linecap="round" stroke-linejoin="round"/>
</svg>
