<svg width="25" height="28" viewBox="0 0 25 28" fill="none" xmlns="http://www.w3.org/2000/svg">
<path d="M1.48754 18.3225L8.96877 6.53798C9.23702 6.11543 9.89089 6.30546 9.89089 6.80596V15.1709C9.89089 15.2261 9.93566 15.2709 9.99089 15.2709H15.2825C15.6868 15.2709 15.9239 15.7257 15.6925 16.0572L8.26058 26.6997C7.98052 27.1007 7.35064 26.9026 7.35064 26.4134V19.1905C7.35064 19.1352 7.30586 19.0905 7.25064 19.0905H1.90966C1.51536 19.0905 1.27621 18.6554 1.48754 18.3225Z" stroke="black" stroke-width="2"/>
<path d="M20.1403 1.90234L23.2274 5.0853M23.2274 5.0853L20.1403 8.26826M23.2274 5.0853L15.8184 5.0853" stroke="black" stroke-width="2" stroke-linecap="round" stroke-linejoin="round"/>
</svg>
