<svg width="367" height="330" viewBox="0 0 367 330" fill="none" xmlns="http://www.w3.org/2000/svg">
<g filter="url(#filter0_f_2187_13772)">
<path d="M95.3121 220.815C81.8889 216.761 57.4516 205.684 48.6689 197.485C38.5415 188.903 59.5476 179.302 62.04 177.855C64.5323 176.408 187.015 115.641 208.378 106.237C229.742 96.8322 297.39 116.672 313.771 125.769C327.123 133.184 317.687 138.429 315.907 139.876C314.127 141.323 212.098 198.208 175.424 215.571C147.651 228.719 121.66 228.773 95.3121 220.815Z" fill="url(#paint0_linear_2187_13772)" fill-opacity="0.29"/>
</g>
<path fill-rule="evenodd" clip-rule="evenodd" d="M186.001 158.236L172.451 151.95L172.448 151.957C172.362 151.915 172.275 151.874 172.187 151.835C164.115 148.211 152.601 156.421 146.469 170.171C140.336 183.921 141.908 198.006 149.979 201.629C150.085 201.677 150.192 201.722 150.299 201.766L163.379 207.843L170.63 191.944C172.538 189.416 174.264 186.506 175.697 183.293C177.018 180.33 177.982 177.352 178.6 174.466L186.001 158.236Z" fill="black"/>
<ellipse cx="16.0268" cy="27.2271" rx="16.0268" ry="27.2271" transform="matrix(0.911862 0.409373 -0.407504 0.913706 170.995 151.545)" fill="black"/>
<g filter="url(#filter1_i_2187_13772)">
<ellipse cx="12.0207" cy="20.4213" rx="12.0207" ry="20.4213" transform="matrix(0.911862 0.409373 -0.407504 0.913706 172.337 159.418)" fill="url(#paint1_linear_2187_13772)"/>
</g>
<g filter="url(#filter2_di_2187_13772)">
<path fill-rule="evenodd" clip-rule="evenodd" d="M172.898 169.531C171.719 170.443 170.572 171.577 169.505 172.899L172.898 178.795L172.898 169.531ZM172.898 191.364L168.656 198.736C169.975 199.165 171.419 199.128 172.898 198.689L172.898 191.364ZM175.192 197.702L175.192 188.731C175.379 188.619 175.565 188.492 175.75 188.351L179.259 194.449C177.963 195.82 176.583 196.922 175.192 197.702ZM175.192 177.239L175.192 168.059C177.532 166.863 179.881 166.591 181.888 167.492C182.449 167.744 182.959 168.076 183.419 168.481L178.249 177.465C178.071 177.309 177.874 177.181 177.658 177.084C176.917 176.751 176.056 176.831 175.192 177.239ZM166.65 197.622L171.741 188.773C171.452 188.531 171.214 188.217 171.028 187.847L163.781 192.044C164.205 194.43 165.172 196.386 166.65 197.622ZM178.872 183.769C178.938 183.579 178.997 183.389 179.051 183.199L186.3 179C186.093 181.031 185.593 183.188 184.787 185.359L178.872 183.769ZM170.679 183.945C170.583 184.475 170.536 184.99 170.536 185.478L163.539 189.531C163.489 187.302 163.835 184.836 164.596 182.31L170.679 183.945ZM165.35 180.134L171.34 181.745C171.372 181.668 171.405 181.591 171.44 181.514C171.494 181.392 171.55 181.272 171.608 181.154L168.028 174.932C167.23 176.149 166.5 177.481 165.863 178.909C165.681 179.317 165.51 179.726 165.35 180.134ZM177.401 186.621L180.837 192.591C181.978 191.098 183.018 189.385 183.895 187.498L177.888 185.883C177.733 186.141 177.571 186.387 177.401 186.621ZM179.403 180.342L186.4 176.289C186.327 174.012 185.838 171.99 184.954 170.414L179.384 180.092C179.392 180.174 179.398 180.258 179.403 180.342Z" fill="#4C4C4C"/>
</g>
<path fill-rule="evenodd" clip-rule="evenodd" d="M185.993 157.951L172.443 151.665L172.442 151.668C172.359 151.628 172.275 151.589 172.19 151.551C164.119 147.927 152.605 156.136 146.473 169.887C140.34 183.637 141.912 197.721 149.983 201.345C150.064 201.381 150.144 201.416 150.226 201.45L163.371 207.557L170.602 191.702C172.522 189.164 174.26 186.24 175.701 183.009C177.03 180.028 177.998 177.032 178.615 174.13L185.993 157.951Z" fill="black"/>
<path d="M189.287 189.545C183.159 203.284 171.649 211.485 163.578 207.861C155.506 204.238 153.931 190.162 160.058 176.423C166.186 162.683 178.043 153.743 186.114 157.367C194.186 160.99 195.415 175.805 189.287 189.545Z" fill="#2D2C2C"/>
<g filter="url(#filter3_i_2187_13772)">
<ellipse cx="11.2658" cy="19.6939" rx="11.2658" ry="19.6939" transform="matrix(0.907827 0.41954 -0.394422 0.918899 172.374 160.174)" fill="url(#paint2_linear_2187_13772)"/>
</g>
<g filter="url(#filter4_di_2187_13772)">
<path fill-rule="evenodd" clip-rule="evenodd" d="M179.482 191.547C178.415 192.945 177.25 194.107 176.055 194.983L177.853 190.874L179.482 191.547ZM182.82 185.464C184.065 182.187 184.532 178.93 184.278 176.196L180.619 184.555L182.82 185.464ZM167.431 179.109C170.444 172.387 175.757 168.233 179.796 169.303L176.787 176.178C174.952 176.071 172.738 177.89 171.359 180.731L167.431 179.109ZM165.501 185.774C164.909 190.231 165.856 194.082 168.182 195.838L171.192 188.961C170.921 188.658 170.702 188.284 170.536 187.853L165.501 185.774Z" fill="#A9A8A8"/>
</g>
<path fill-rule="evenodd" clip-rule="evenodd" d="M287.818 107.011L275.878 103.922L275.876 103.929C275.8 103.908 275.724 103.888 275.647 103.869C268.553 102.128 260.419 110.511 257.479 122.594C254.54 134.677 257.908 145.884 265.002 147.626C265.101 147.65 265.199 147.672 265.298 147.692L276.808 150.676L280.334 136.691C281.51 134.352 282.482 131.728 283.17 128.901C283.804 126.294 284.145 123.727 284.218 121.288L287.818 107.011Z" fill="black"/>
<ellipse cx="13.2364" cy="22.4823" rx="13.2364" ry="22.4823" transform="matrix(0.970456 0.238231 -0.236561 0.972367 274.647 103.81)" fill="black"/>
<g filter="url(#filter5_i_2187_13772)">
<ellipse cx="9.92782" cy="16.8627" rx="9.92782" ry="16.8627" transform="matrix(0.970456 0.238231 -0.236561 0.972367 276.9 110.005)" fill="url(#paint3_linear_2187_13772)"/>
</g>
<g filter="url(#filter6_di_2187_13772)">
<path fill-rule="evenodd" clip-rule="evenodd" d="M278.869 118.13C278.045 119.047 277.281 120.141 276.609 121.377L280.248 125.669L278.869 118.13ZM282.111 135.863L279.757 142.49C280.894 142.642 282.063 142.396 283.199 141.818L282.111 135.863ZM284.916 140.673L283.584 133.391C283.719 133.273 283.851 133.143 283.979 133.002L287.732 137.43C286.884 138.734 285.928 139.833 284.916 140.673ZM281.878 124.056L280.514 116.594C282.236 115.276 284.102 114.706 285.865 115.139C286.358 115.26 286.823 115.455 287.256 115.715L284.391 123.782C284.225 123.683 284.047 123.609 283.858 123.563C283.207 123.403 282.519 123.595 281.878 124.056ZM277.962 141.884L280.784 133.939C280.514 133.785 280.275 133.566 280.069 133.293L274.804 137.784C275.503 139.657 276.579 141.102 277.962 141.884ZM285.837 128.811C285.862 128.647 285.882 128.484 285.898 128.322L291.158 123.835C291.291 125.514 291.205 127.339 290.873 129.222L285.837 128.811ZM279.207 130.174C279.208 130.62 279.246 131.045 279.318 131.442L274.234 135.778C273.862 133.974 273.776 131.918 274.019 129.751L279.207 130.174ZM274.308 127.872L279.418 128.288C279.432 128.222 279.448 128.155 279.464 128.088C279.49 127.982 279.517 127.877 279.547 127.773L275.711 123.248C275.244 124.355 274.849 125.546 274.543 126.8C274.456 127.159 274.378 127.516 274.308 127.872ZM285.064 131.352L288.738 135.685C289.443 134.302 290.034 132.756 290.466 131.092L285.352 130.675C285.264 130.909 285.168 131.135 285.064 131.352ZM285.759 125.949L290.837 121.617C290.44 119.777 289.743 118.207 288.79 117.057L285.705 125.743C285.724 125.81 285.742 125.879 285.759 125.949Z" fill="#4C4C4C"/>
</g>
<path fill-rule="evenodd" clip-rule="evenodd" d="M287.857 107.326L275.916 104.237L275.916 104.24C275.84 104.219 275.764 104.199 275.688 104.18C268.593 102.439 260.459 110.822 257.52 122.905C254.58 134.988 257.948 146.195 265.043 147.937C265.112 147.954 265.181 147.97 265.25 147.985L276.847 150.991L280.373 137.005C281.55 134.665 282.523 132.04 283.211 129.212C283.845 126.604 284.186 124.036 284.258 121.596L287.857 107.326Z" fill="black"/>
<ellipse cx="13.3835" cy="22.7322" rx="13.3835" ry="22.7322" transform="matrix(0.970456 0.238231 -0.236561 0.972367 274.602 103.579)" fill="#2C2C2C"/>
<g filter="url(#filter7_i_2187_13772)">
<g filter="url(#filter8_i_2187_13772)">
<ellipse cx="9.31372" cy="16.2818" rx="9.31372" ry="16.2818" transform="matrix(0.955804 0.291458 -0.30431 0.953325 279.058 112.146)" fill="url(#paint4_linear_2187_13772)"/>
</g>
<g filter="url(#filter9_di_2187_13772)">
<path fill-rule="evenodd" clip-rule="evenodd" d="M288.008 136.772C287.336 137.943 286.572 138.963 285.758 139.79L286.687 136.487L288.008 136.772ZM290.147 131.219C290.78 128.449 290.797 125.803 290.296 123.656L288.281 130.818L290.147 131.219ZM276.685 128.323C278.389 122.462 282.296 118.342 285.76 118.623L284.078 124.602C282.545 124.772 280.921 126.562 280.111 129.06L276.685 128.323ZM275.871 134.161C275.942 137.759 277.171 140.65 279.265 141.711L280.946 135.735C280.739 135.574 280.554 135.371 280.392 135.133L275.871 134.161Z" fill="#A9A8A8"/>
</g>
</g>
<g filter="url(#filter10_ii_2187_13772)">
<path fill-rule="evenodd" clip-rule="evenodd" d="M110.007 99.9115C109.593 100.264 109.154 100.591 108.665 100.83C108.362 100.977 108.081 101.087 107.821 101.157C102.79 102.504 60.6475 125.62 51.4593 134.91C42.5179 143.95 43.0138 149.354 43.244 151.862C43.2773 152.224 43.305 152.526 43.2979 152.77C43.2627 153.986 43.2718 156.432 43.2834 159.544C43.2902 161.377 43.2979 163.441 43.2979 165.621L43.2979 173.026C43.3153 173.579 43.3128 174.144 43.3103 174.72C43.2997 177.167 43.2881 179.828 44.7882 182.743C46.6374 186.337 55.5652 199.514 98.8909 213.127C113.591 217.746 130.669 212.608 141.55 208.096C144.931 206.835 147.7 205.607 149.592 204.714C149.903 204.567 150.19 204.386 150.45 204.177C150.796 203.9 151.14 203.616 151.534 203.412C151.899 203.223 152.14 202.858 152.177 202.448C152.505 198.758 153.373 193.725 154.619 188.703C156.077 183.143 157.994 177.648 160.095 174.054C165.071 165.544 175.661 155.05 183.989 157.925C193.441 161.188 192.715 174.781 192.533 178.027C192.48 178.981 192.369 179.618 192.26 180.246C192.232 180.407 192.219 180.564 192.219 180.716C192.22 181.081 192.197 181.452 192.119 181.809C192.106 181.867 192.095 181.928 192.084 181.994C191.885 183.167 193.225 183.914 194.282 183.367C194.545 183.232 194.841 183.18 195.135 183.154C195.509 183.12 195.889 183.015 196.256 182.827L265.717 147.289C266.487 146.895 267.126 146.297 267.528 145.57C267.554 145.522 267.592 145.484 267.64 145.459C267.712 145.422 267.763 145.354 267.776 145.274C267.795 145.163 267.81 145.051 267.822 144.939C267.829 144.878 267.841 144.818 267.858 144.758C267.923 144.52 267.964 144.273 267.978 144.018C268.048 142.799 268.044 141.461 268.041 140.02L268.041 140.019C268.026 134.263 268.007 126.866 272.6 118.829C276.797 111.483 282.913 106.62 288.465 108.363C294.017 110.105 295.527 116.085 295.829 119.415C296.127 122.686 295.95 125.688 295.847 127.428L295.847 127.429C295.806 128.129 295.777 128.625 295.795 128.853C295.86 129.645 303.854 122.767 304.368 120.146C305.932 112.169 306.257 104.699 305.437 96.602C305.322 95.4715 304.95 92.8689 304.612 91.3124C304.468 90.649 304.382 89.9671 304.397 89.2883C304.453 86.5646 303.988 82.9986 303.29 81.4121C303.223 81.2575 303.156 81.0947 303.087 80.9237L303.087 80.9233C302.274 78.9261 301.005 75.8069 291.222 71.4319C277.332 65.2196 239.509 51.3902 238.046 51.0669C234.588 50.3032 230.159 50.6313 226.574 50.8969C224.47 51.0528 222.656 51.1872 221.5 51.0668C204.796 49.3282 185.431 51.635 159.878 64.5265C156.461 65.9768 153.083 67.6315 149.812 69.5202C141.648 74.2337 134.767 79.2377 129.043 83.8446C122.34 88.9647 117.172 93.5686 113.464 96.8721L113.464 96.8722L113.464 96.8724C112.122 98.0683 110.971 99.0937 110.007 99.9115Z" fill="url(#paint5_linear_2187_13772)"/>
</g>
<g filter="url(#filter11_ddi_2187_13772)">
<path d="M176.456 129.256C185.381 125.562 190.551 113.762 203.443 99.727C204.546 98.5259 204.133 96.5728 202.619 95.9649L147.621 73.875C147.278 73.7372 146.91 73.6885 146.557 73.7976C144.81 74.3371 138.541 77.0311 123.515 90.2451C115.255 97.5091 113.601 99.4012 109.333 102.278C108.658 102.733 108.776 103.734 111.255 105.778C119.16 112.294 162.719 134.943 176.456 129.256Z" fill="url(#paint6_linear_2187_13772)"/>
</g>
<g filter="url(#filter12_di_2187_13772)">
<path d="M241.973 80.3272C254.183 76.4839 257.326 76.4621 265.755 75.9868C271.556 75.6598 280.765 76.5176 281.77 79.1293C282.775 81.741 271.625 89.9436 267.01 92.4975C264.754 93.7458 186.94 132.744 189.414 128.135C192.463 122.457 206.494 106.236 211.286 99.6118C219.275 88.5684 229.762 84.1704 241.973 80.3272Z" fill="url(#paint7_linear_2187_13772)"/>
</g>
<g filter="url(#filter13_di_2187_13772)">
<path d="M269.649 72.6379L218.42 51.7717C218.42 51.7717 219.569 52.1765 225.855 52.084C228.048 52.0517 281.216 73.9086 281.604 74.2501L269.649 72.6379Z" fill="url(#paint8_linear_2187_13772)"/>
</g>
<g filter="url(#filter14_f_2187_13772)">
<path d="M152.919 157.392C172.593 148.246 183.648 136.765 195.5 126.271C160.204 136.737 86.3285 159.64 87.4861 161.13C88.933 162.993 94.2389 165.204 111.869 166.392C129.227 167.563 150.666 158.439 152.919 157.392Z" fill="url(#paint9_linear_2187_13772)" fill-opacity="0.21"/>
</g>
<g filter="url(#filter15_f_2187_13772)">
<path d="M76.9471 113.736C78.0651 112.817 92.1116 98.2589 102.629 91.0114C93.9356 107.977 74.1155 144.854 72.2722 144.67C69.9681 144.439 59.4257 142.465 56.3203 135.291C53.263 128.229 75.5497 114.885 76.9471 113.736Z" fill="url(#paint10_linear_2187_13772)" fill-opacity="0.13"/>
</g>
<g filter="url(#filter16_di_2187_13772)">
<path d="M222.921 130.285C222.921 129.83 223.181 129.415 223.59 129.216L229.329 126.425C230.118 126.041 231.035 126.616 231.035 127.494C231.035 127.952 230.773 128.369 230.362 128.568L224.619 131.351C223.833 131.731 222.921 131.159 222.921 130.285Z" fill="#323232"/>
</g>
<g filter="url(#filter17_di_2187_13772)">
<path d="M260.562 113.669C260.562 113.214 260.822 112.799 261.23 112.6L266.969 109.809C267.758 109.425 268.675 110 268.675 110.878C268.675 111.336 268.414 111.753 268.003 111.952L262.259 114.735C261.474 115.115 260.562 114.543 260.562 113.669Z" fill="#323232"/>
</g>
<g filter="url(#filter18_f_2187_13772)">
<path d="M206.243 173.918L262.282 146.482C263.428 145.921 264.289 144.911 264.652 143.687C266.409 137.752 269.099 128.203 269.159 126.065C269.244 123.08 193.271 159.225 195.93 165.979C196.226 166.73 196.469 167.477 196.667 168.211C197.707 172.059 202.663 175.671 206.243 173.918Z" fill="url(#paint11_linear_2187_13772)" fill-opacity="0.12"/>
</g>
<path d="M138.141 120.653L182.982 87.9819C188.118 89.3725 199.804 94.6051 202.031 95.4417C204.917 96.5256 205.396 97.1297 205.396 97.1297C205.396 98.0009 204.952 98.382 203.551 99.7434C201.543 101.695 200.693 102.593 195.718 108.946C188.554 118.093 183.103 126.605 177.877 128.647C173.719 130.272 167.233 131.693 158.004 128.647C149.755 125.925 144.677 122.848 138.141 120.653Z" fill="#C4C4C4" fill-opacity="0.2"/>
<g opacity="0.17" filter="url(#filter19_f_2187_13772)">
<path d="M58.6245 146.538C70.8422 156.206 98.022 170.027 110.158 172.134" stroke="url(#paint12_linear_2187_13772)" stroke-width="16" stroke-linecap="round" stroke-linejoin="round"/>
</g>
<g filter="url(#filter20_ddii_2187_13772)">
<path d="M49.2964 150.065C47.0137 146.982 47.5551 144.496 47.907 140.71C47.94 140.355 48.0273 140.003 48.111 139.657C48.6528 137.414 44.5515 143.603 44.1055 147.943C43.9515 149.444 44.0479 150.204 44.1887 151.59C44.2531 152.224 45.557 156.094 45.3635 156.929C45.1699 157.765 45.5952 163.523 45.5659 164.394C45.5366 165.264 49.1701 171.74 58.716 177.986C66.6458 183.174 78.0316 186.579 79.1988 186.747C80.366 186.915 81.5099 182.999 82.3573 182.782C84.5746 182.216 91.1249 184.623 93.5702 185.238C96.4234 185.955 103.081 187.61 110.357 186.675C119.357 185.518 120.734 184.495 129.008 179.989C132.345 178.171 135.093 175.312 137.057 172.623C138.962 170.013 136.692 167.586 133.62 168.588C127.223 170.675 117.752 173.478 107.356 174.544C87.4939 176.58 71.8062 167.14 69.5587 165.783C60.1112 160.078 55.1488 157.969 49.2964 150.065Z" fill="#272727"/>
</g>
<mask id="mask0_2187_13772" style="mask-type:alpha" maskUnits="userSpaceOnUse" x="43" y="146" width="95" height="41">
<path d="M49.2967 150.026C49.1353 149.807 48.9871 149.586 48.8513 149.362C47.2257 146.682 43.615 144.982 43.14 148.08C42.9852 149.582 43.0216 150.535 43.1616 151.921C43.2256 152.555 45.5535 156.053 45.3595 156.888C45.1654 157.723 45.587 163.482 45.5571 164.352C45.5272 165.223 49.1567 171.701 58.6986 177.953C66.6251 183.146 78.0087 186.559 79.1757 186.727C80.3428 186.896 81.4892 182.98 82.3367 182.765C84.5544 182.2 91.1032 184.611 93.548 185.227C96.4008 185.946 103.057 187.605 110.334 186.675C119.335 185.524 120.713 184.502 128.989 180.001C132.327 178.186 135.078 175.328 137.043 172.64C138.949 170.032 136.681 167.603 133.609 168.603C127.21 170.686 117.737 173.482 107.34 174.542C87.4773 176.566 71.7956 167.115 69.549 165.757C60.1051 160.046 55.1442 157.934 49.2967 150.026Z" fill="#999999"/>
</mask>
<g mask="url(#mask0_2187_13772)">
<g filter="url(#filter21_d_2187_13772)">
<path d="M123.256 170.893L99.68 171.248C99.5477 171.9 99.4882 172.719 99.6915 173.537C99.8871 174.324 100.34 175.178 101.363 175.944C102.415 176.732 104.154 177.488 107.006 177.87C108.65 178.091 110.974 178.086 113.369 177.632C115.769 177.176 118.119 176.293 119.923 174.854C120.856 174.11 122.098 172.538 123.185 170.994C123.209 170.96 123.233 170.926 123.256 170.893Z" stroke="white" stroke-opacity="0.9" stroke-width="3.41524"/>
</g>
<g filter="url(#filter22_d_2187_13772)">
<path d="M48.1227 144.207L51.0475 148.64C50.5353 148.696 49.7913 148.838 49.1802 149.3C49.0419 149.405 48.9697 149.416 48.9662 149.416L48.9661 149.416L48.1227 144.207ZM48.1227 144.207C47.7686 145.495 47.6764 147.105 48.4666 148.807C48.6706 149.246 48.894 149.388 48.9539 149.412C48.9596 149.415 48.9634 149.416 48.9656 149.417L48.1227 144.207Z" stroke="white" stroke-opacity="0.9" stroke-width="3.41524"/>
</g>
</g>
<defs>
<filter id="filter0_f_2187_13772" x="43.9272" y="101.767" width="278.876" height="126.467" filterUnits="userSpaceOnUse" color-interpolation-filters="sRGB">
<feFlood flood-opacity="0" result="BackgroundImageFix"/>
<feBlend mode="normal" in="SourceGraphic" in2="BackgroundImageFix" result="shape"/>
<feGaussianBlur stdDeviation="1" result="effect1_foregroundBlur_2187_13772"/>
</filter>
<filter id="filter1_i_2187_13772" x="161.214" y="163.696" width="27.5261" height="38.6035" filterUnits="userSpaceOnUse" color-interpolation-filters="sRGB">
<feFlood flood-opacity="0" result="BackgroundImageFix"/>
<feBlend mode="normal" in="SourceGraphic" in2="BackgroundImageFix" result="shape"/>
<feColorMatrix in="SourceAlpha" type="matrix" values="0 0 0 0 0 0 0 0 0 0 0 0 0 0 0 0 0 0 127 0" result="hardAlpha"/>
<feMorphology radius="1.14765" operator="erode" in="SourceAlpha" result="effect1_innerShadow_2187_13772"/>
<feOffset/>
<feGaussianBlur stdDeviation="0.573823"/>
<feComposite in2="hardAlpha" operator="arithmetic" k2="-1" k3="1"/>
<feColorMatrix type="matrix" values="0 0 0 0 0 0 0 0 0 0 0 0 0 0 0 0 0 0 0.25 0"/>
<feBlend mode="normal" in2="shape" result="effect1_innerShadow_2187_13772"/>
</filter>
<filter id="filter2_di_2187_13772" x="160.092" y="166.728" width="26.997" height="34.6056" filterUnits="userSpaceOnUse" color-interpolation-filters="sRGB">
<feFlood flood-opacity="0" result="BackgroundImageFix"/>
<feColorMatrix in="SourceAlpha" type="matrix" values="0 0 0 0 0 0 0 0 0 0 0 0 0 0 0 0 0 0 127 0" result="hardAlpha"/>
<feOffset dy="0.459058"/>
<feGaussianBlur stdDeviation="0.344294"/>
<feColorMatrix type="matrix" values="0 0 0 0 1 0 0 0 0 1 0 0 0 0 1 0 0 0 0.41 0"/>
<feBlend mode="normal" in2="BackgroundImageFix" result="effect1_dropShadow_2187_13772"/>
<feBlend mode="normal" in="SourceGraphic" in2="effect1_dropShadow_2187_13772" result="shape"/>
<feColorMatrix in="SourceAlpha" type="matrix" values="0 0 0 0 0 0 0 0 0 0 0 0 0 0 0 0 0 0 127 0" result="hardAlpha"/>
<feOffset dx="-3.44294" dy="2.29529"/>
<feGaussianBlur stdDeviation="1.72147"/>
<feComposite in2="hardAlpha" operator="arithmetic" k2="-1" k3="1"/>
<feColorMatrix type="matrix" values="0 0 0 0 0 0 0 0 0 0 0 0 0 0 0 0 0 0 0.25 0"/>
<feBlend mode="normal" in2="shape" result="effect2_innerShadow_2187_13772"/>
</filter>
<filter id="filter3_i_2187_13772" x="161.99" y="164.289" width="25.687" height="37.4167" filterUnits="userSpaceOnUse" color-interpolation-filters="sRGB">
<feFlood flood-opacity="0" result="BackgroundImageFix"/>
<feBlend mode="normal" in="SourceGraphic" in2="BackgroundImageFix" result="shape"/>
<feColorMatrix in="SourceAlpha" type="matrix" values="0 0 0 0 0 0 0 0 0 0 0 0 0 0 0 0 0 0 127 0" result="hardAlpha"/>
<feMorphology radius="2.84604" operator="erode" in="SourceAlpha" result="effect1_innerShadow_2187_13772"/>
<feOffset/>
<feGaussianBlur stdDeviation="1.42302"/>
<feComposite in2="hardAlpha" operator="arithmetic" k2="-1" k3="1"/>
<feColorMatrix type="matrix" values="0 0 0 0 0 0 0 0 0 0 0 0 0 0 0 0 0 0 0.25 0"/>
<feBlend mode="normal" in2="shape" result="effect1_innerShadow_2187_13772"/>
</filter>
<filter id="filter4_di_2187_13772" x="161.69" y="168.893" width="23.8682" height="29.3718" filterUnits="userSpaceOnUse" color-interpolation-filters="sRGB">
<feFlood flood-opacity="0" result="BackgroundImageFix"/>
<feColorMatrix in="SourceAlpha" type="matrix" values="0 0 0 0 0 0 0 0 0 0 0 0 0 0 0 0 0 0 127 0" result="hardAlpha"/>
<feOffset dy="0.970617"/>
<feGaussianBlur stdDeviation="0.606636"/>
<feColorMatrix type="matrix" values="0 0 0 0 1 0 0 0 0 1 0 0 0 0 1 0 0 0 0.59 0"/>
<feBlend mode="normal" in2="BackgroundImageFix" result="effect1_dropShadow_2187_13772"/>
<feBlend mode="normal" in="SourceGraphic" in2="effect1_dropShadow_2187_13772" result="shape"/>
<feColorMatrix in="SourceAlpha" type="matrix" values="0 0 0 0 0 0 0 0 0 0 0 0 0 0 0 0 0 0 127 0" result="hardAlpha"/>
<feOffset dx="-3.63981" dy="2.42654"/>
<feGaussianBlur stdDeviation="1.81991"/>
<feComposite in2="hardAlpha" operator="arithmetic" k2="-1" k3="1"/>
<feColorMatrix type="matrix" values="0 0 0 0 0 0 0 0 0 0 0 0 0 0 0 0 0 0 0.25 0"/>
<feBlend mode="normal" in2="shape" result="effect2_innerShadow_2187_13772"/>
</filter>
<filter id="filter5_i_2187_13772" x="272.115" y="112.198" width="20.8608" height="33.137" filterUnits="userSpaceOnUse" color-interpolation-filters="sRGB">
<feFlood flood-opacity="0" result="BackgroundImageFix"/>
<feBlend mode="normal" in="SourceGraphic" in2="BackgroundImageFix" result="shape"/>
<feColorMatrix in="SourceAlpha" type="matrix" values="0 0 0 0 0 0 0 0 0 0 0 0 0 0 0 0 0 0 127 0" result="hardAlpha"/>
<feMorphology radius="0.947741" operator="erode" in="SourceAlpha" result="effect1_innerShadow_2187_13772"/>
<feOffset/>
<feGaussianBlur stdDeviation="0.47387"/>
<feComposite in2="hardAlpha" operator="arithmetic" k2="-1" k3="1"/>
<feColorMatrix type="matrix" values="0 0 0 0 0 0 0 0 0 0 0 0 0 0 0 0 0 0 0.25 0"/>
<feBlend mode="normal" in2="shape" result="effect1_innerShadow_2187_13772"/>
</filter>
<filter id="filter6_di_2187_13772" x="271.039" y="114.807" width="20.7478" height="29.6229" filterUnits="userSpaceOnUse" color-interpolation-filters="sRGB">
<feFlood flood-opacity="0" result="BackgroundImageFix"/>
<feColorMatrix in="SourceAlpha" type="matrix" values="0 0 0 0 0 0 0 0 0 0 0 0 0 0 0 0 0 0 127 0" result="hardAlpha"/>
<feOffset dy="0.379096"/>
<feGaussianBlur stdDeviation="0.284322"/>
<feColorMatrix type="matrix" values="0 0 0 0 1 0 0 0 0 1 0 0 0 0 1 0 0 0 0.41 0"/>
<feBlend mode="normal" in2="BackgroundImageFix" result="effect1_dropShadow_2187_13772"/>
<feBlend mode="normal" in="SourceGraphic" in2="effect1_dropShadow_2187_13772" result="shape"/>
<feColorMatrix in="SourceAlpha" type="matrix" values="0 0 0 0 0 0 0 0 0 0 0 0 0 0 0 0 0 0 127 0" result="hardAlpha"/>
<feOffset dx="-2.84322" dy="1.89548"/>
<feGaussianBlur stdDeviation="1.42161"/>
<feComposite in2="hardAlpha" operator="arithmetic" k2="-1" k3="1"/>
<feColorMatrix type="matrix" values="0 0 0 0 0 0 0 0 0 0 0 0 0 0 0 0 0 0 0.25 0"/>
<feBlend mode="normal" in2="shape" result="effect2_innerShadow_2187_13772"/>
</filter>
<filter id="filter7_i_2187_13772" x="272.816" y="114.622" width="20.3796" height="31.52" filterUnits="userSpaceOnUse" color-interpolation-filters="sRGB">
<feFlood flood-opacity="0" result="BackgroundImageFix"/>
<feBlend mode="normal" in="SourceGraphic" in2="BackgroundImageFix" result="shape"/>
<feColorMatrix in="SourceAlpha" type="matrix" values="0 0 0 0 0 0 0 0 0 0 0 0 0 0 0 0 0 0 127 0" result="hardAlpha"/>
<feMorphology radius="2.84604" operator="erode" in="SourceAlpha" result="effect1_innerShadow_2187_13772"/>
<feOffset/>
<feGaussianBlur stdDeviation="1.42302"/>
<feComposite in2="hardAlpha" operator="arithmetic" k2="-1" k3="1"/>
<feColorMatrix type="matrix" values="0 0 0 0 0 0 0 0 0 0 0 0 0 0 0 0 0 0 0.25 0"/>
<feBlend mode="normal" in2="shape" result="effect1_innerShadow_2187_13772"/>
</filter>
<filter id="filter8_i_2187_13772" x="272.816" y="114.622" width="20.3796" height="31.52" filterUnits="userSpaceOnUse" color-interpolation-filters="sRGB">
<feFlood flood-opacity="0" result="BackgroundImageFix"/>
<feBlend mode="normal" in="SourceGraphic" in2="BackgroundImageFix" result="shape"/>
<feColorMatrix in="SourceAlpha" type="matrix" values="0 0 0 0 0 0 0 0 0 0 0 0 0 0 0 0 0 0 127 0" result="hardAlpha"/>
<feMorphology radius="0.852955" operator="erode" in="SourceAlpha" result="effect1_innerShadow_2187_13772"/>
<feOffset/>
<feGaussianBlur stdDeviation="0.426477"/>
<feComposite in2="hardAlpha" operator="arithmetic" k2="-1" k3="1"/>
<feColorMatrix type="matrix" values="0 0 0 0 0 0 0 0 0 0 0 0 0 0 0 0 0 0 0.25 0"/>
<feBlend mode="normal" in2="shape" result="effect1_innerShadow_2187_13772"/>
</filter>
<filter id="filter9_di_2187_13772" x="272.232" y="118.367" width="19.6304" height="25.7703" filterUnits="userSpaceOnUse" color-interpolation-filters="sRGB">
<feFlood flood-opacity="0" result="BackgroundImageFix"/>
<feColorMatrix in="SourceAlpha" type="matrix" values="0 0 0 0 0 0 0 0 0 0 0 0 0 0 0 0 0 0 127 0" result="hardAlpha"/>
<feOffset dy="0.970618"/>
<feGaussianBlur stdDeviation="0.606636"/>
<feColorMatrix type="matrix" values="0 0 0 0 1 0 0 0 0 1 0 0 0 0 1 0 0 0 0.59 0"/>
<feBlend mode="normal" in2="BackgroundImageFix" result="effect1_dropShadow_2187_13772"/>
<feBlend mode="normal" in="SourceGraphic" in2="effect1_dropShadow_2187_13772" result="shape"/>
<feColorMatrix in="SourceAlpha" type="matrix" values="0 0 0 0 0 0 0 0 0 0 0 0 0 0 0 0 0 0 127 0" result="hardAlpha"/>
<feOffset dx="-3.63982" dy="2.42654"/>
<feGaussianBlur stdDeviation="1.81991"/>
<feComposite in2="hardAlpha" operator="arithmetic" k2="-1" k3="1"/>
<feColorMatrix type="matrix" values="0 0 0 0 0 0 0 0 0 0 0 0 0 0 0 0 0 0 0.25 0"/>
<feBlend mode="normal" in2="shape" result="effect2_innerShadow_2187_13772"/>
</filter>
<filter id="filter10_ii_2187_13772" x="43.1504" y="27.7903" width="279.799" height="187.15" filterUnits="userSpaceOnUse" color-interpolation-filters="sRGB">
<feFlood flood-opacity="0" result="BackgroundImageFix"/>
<feBlend mode="normal" in="SourceGraphic" in2="BackgroundImageFix" result="shape"/>
<feColorMatrix in="SourceAlpha" type="matrix" values="0 0 0 0 0 0 0 0 0 0 0 0 0 0 0 0 0 0 127 0" result="hardAlpha"/>
<feOffset dx="17.0762" dy="-22.7683"/>
<feGaussianBlur stdDeviation="68.3049"/>
<feComposite in2="hardAlpha" operator="arithmetic" k2="-1" k3="1"/>
<feColorMatrix type="matrix" values="0 0 0 0 0 0 0 0 0 0 0 0 0 0 0 0 0 0 0.07 0"/>
<feBlend mode="normal" in2="shape" result="effect1_innerShadow_2187_13772"/>
<feColorMatrix in="SourceAlpha" type="matrix" values="0 0 0 0 0 0 0 0 0 0 0 0 0 0 0 0 0 0 127 0" result="hardAlpha"/>
<feOffset dy="-2.84604"/>
<feGaussianBlur stdDeviation="5.69207"/>
<feComposite in2="hardAlpha" operator="arithmetic" k2="-1" k3="1"/>
<feColorMatrix type="matrix" values="0 0 0 0 0 0 0 0 0 0 0 0 0 0 0 0 0 0 0.09 0"/>
<feBlend mode="normal" in2="effect1_innerShadow_2187_13772" result="effect2_innerShadow_2187_13772"/>
</filter>
<filter id="filter11_ddi_2187_13772" x="104.389" y="70.2949" width="101.973" height="63.3114" filterUnits="userSpaceOnUse" color-interpolation-filters="sRGB">
<feFlood flood-opacity="0" result="BackgroundImageFix"/>
<feColorMatrix in="SourceAlpha" type="matrix" values="0 0 0 0 0 0 0 0 0 0 0 0 0 0 0 0 0 0 127 0" result="hardAlpha"/>
<feOffset dx="-2.29529" dy="1.14765"/>
<feGaussianBlur stdDeviation="1.14765"/>
<feColorMatrix type="matrix" values="0 0 0 0 1 0 0 0 0 1 0 0 0 0 1 0 0 0 0.28 0"/>
<feBlend mode="normal" in2="BackgroundImageFix" result="effect1_dropShadow_2187_13772"/>
<feColorMatrix in="SourceAlpha" type="matrix" values="0 0 0 0 0 0 0 0 0 0 0 0 0 0 0 0 0 0 127 0" result="hardAlpha"/>
<feOffset dy="-1.14765"/>
<feGaussianBlur stdDeviation="1.14765"/>
<feColorMatrix type="matrix" values="0 0 0 0 1 0 0 0 0 1 0 0 0 0 1 0 0 0 0.56 0"/>
<feBlend mode="normal" in2="effect1_dropShadow_2187_13772" result="effect2_dropShadow_2187_13772"/>
<feBlend mode="normal" in="SourceGraphic" in2="effect2_dropShadow_2187_13772" result="shape"/>
<feColorMatrix in="SourceAlpha" type="matrix" values="0 0 0 0 0 0 0 0 0 0 0 0 0 0 0 0 0 0 127 0" result="hardAlpha"/>
<feOffset dx="-1.14765" dy="3.44294"/>
<feGaussianBlur stdDeviation="1.72147"/>
<feComposite in2="hardAlpha" operator="arithmetic" k2="-1" k3="1"/>
<feColorMatrix type="matrix" values="0 0 0 0 0 0 0 0 0 0 0 0 0 0 0 0 0 0 0.75 0"/>
<feBlend mode="normal" in2="shape" result="effect3_innerShadow_2187_13772"/>
</filter>
<filter id="filter12_di_2187_13772" x="184.766" y="75.9207" width="98.2549" height="57.1836" filterUnits="userSpaceOnUse" color-interpolation-filters="sRGB">
<feFlood flood-opacity="0" result="BackgroundImageFix"/>
<feColorMatrix in="SourceAlpha" type="matrix" values="0 0 0 0 0 0 0 0 0 0 0 0 0 0 0 0 0 0 127 0" result="hardAlpha"/>
<feOffset dy="1.18682"/>
<feGaussianBlur stdDeviation="0.593408"/>
<feColorMatrix type="matrix" values="0 0 0 0 0.925374 0 0 0 0 0.925374 0 0 0 0 0.925374 0 0 0 0.37 0"/>
<feBlend mode="normal" in2="BackgroundImageFix" result="effect1_dropShadow_2187_13772"/>
<feBlend mode="normal" in="SourceGraphic" in2="effect1_dropShadow_2187_13772" result="shape"/>
<feColorMatrix in="SourceAlpha" type="matrix" values="0 0 0 0 0 0 0 0 0 0 0 0 0 0 0 0 0 0 127 0" result="hardAlpha"/>
<feOffset dx="-4.59058" dy="5.73823"/>
<feGaussianBlur stdDeviation="2.29529"/>
<feComposite in2="hardAlpha" operator="arithmetic" k2="-1" k3="1"/>
<feColorMatrix type="matrix" values="0 0 0 0 0 0 0 0 0 0 0 0 0 0 0 0 0 0 0.8 0"/>
<feBlend mode="normal" in2="shape" result="effect2_innerShadow_2187_13772"/>
</filter>
<filter id="filter13_di_2187_13772" x="213.83" y="51.7717" width="68.961" height="27.0691" filterUnits="userSpaceOnUse" color-interpolation-filters="sRGB">
<feFlood flood-opacity="0" result="BackgroundImageFix"/>
<feColorMatrix in="SourceAlpha" type="matrix" values="0 0 0 0 0 0 0 0 0 0 0 0 0 0 0 0 0 0 127 0" result="hardAlpha"/>
<feOffset dy="1.18682"/>
<feGaussianBlur stdDeviation="0.593408"/>
<feColorMatrix type="matrix" values="0 0 0 0 0.925374 0 0 0 0 0.925374 0 0 0 0 0.925374 0 0 0 0.37 0"/>
<feBlend mode="normal" in2="BackgroundImageFix" result="effect1_dropShadow_2187_13772"/>
<feBlend mode="normal" in="SourceGraphic" in2="effect1_dropShadow_2187_13772" result="shape"/>
<feColorMatrix in="SourceAlpha" type="matrix" values="0 0 0 0 0 0 0 0 0 0 0 0 0 0 0 0 0 0 127 0" result="hardAlpha"/>
<feOffset dx="-4.59058" dy="5.73823"/>
<feGaussianBlur stdDeviation="2.29529"/>
<feComposite in2="hardAlpha" operator="arithmetic" k2="-1" k3="1"/>
<feColorMatrix type="matrix" values="0 0 0 0 0 0 0 0 0 0 0 0 0 0 0 0 0 0 0.8 0"/>
<feBlend mode="normal" in2="shape" result="effect2_innerShadow_2187_13772"/>
</filter>
<filter id="filter14_f_2187_13772" x="55.3386" y="94.1364" width="172.295" height="104.494" filterUnits="userSpaceOnUse" color-interpolation-filters="sRGB">
<feFlood flood-opacity="0" result="BackgroundImageFix"/>
<feBlend mode="normal" in="SourceGraphic" in2="BackgroundImageFix" result="shape"/>
<feGaussianBlur stdDeviation="16.067" result="effect1_foregroundBlur_2187_13772"/>
</filter>
<filter id="filter15_f_2187_13772" x="35.3751" y="70.3536" width="87.9115" height="94.9744" filterUnits="userSpaceOnUse" color-interpolation-filters="sRGB">
<feFlood flood-opacity="0" result="BackgroundImageFix"/>
<feBlend mode="normal" in="SourceGraphic" in2="BackgroundImageFix" result="shape"/>
<feGaussianBlur stdDeviation="10.3288" result="effect1_foregroundBlur_2187_13772"/>
</filter>
<filter id="filter16_di_2187_13772" x="222.352" y="125.165" width="9.25194" height="9.1512" filterUnits="userSpaceOnUse" color-interpolation-filters="sRGB">
<feFlood flood-opacity="0" result="BackgroundImageFix"/>
<feColorMatrix in="SourceAlpha" type="matrix" values="0 0 0 0 0 0 0 0 0 0 0 0 0 0 0 0 0 0 127 0" result="hardAlpha"/>
<feOffset dy="-0.569207"/>
<feGaussianBlur stdDeviation="0.284604"/>
<feColorMatrix type="matrix" values="0 0 0 0 0.78755 0 0 0 0 0.78755 0 0 0 0 0.78755 0 0 0 0.19 0"/>
<feBlend mode="normal" in2="BackgroundImageFix" result="effect1_dropShadow_2187_13772"/>
<feBlend mode="normal" in="SourceGraphic" in2="effect1_dropShadow_2187_13772" result="shape"/>
<feColorMatrix in="SourceAlpha" type="matrix" values="0 0 0 0 0 0 0 0 0 0 0 0 0 0 0 0 0 0 127 0" result="hardAlpha"/>
<feOffset dy="2.84604"/>
<feGaussianBlur stdDeviation="1.42302"/>
<feComposite in2="hardAlpha" operator="arithmetic" k2="-1" k3="1"/>
<feColorMatrix type="matrix" values="0 0 0 0 0 0 0 0 0 0 0 0 0 0 0 0 0 0 0.74 0"/>
<feBlend mode="normal" in2="shape" result="effect2_innerShadow_2187_13772"/>
</filter>
<filter id="filter17_di_2187_13772" x="259.993" y="108.549" width="9.25194" height="9.1512" filterUnits="userSpaceOnUse" color-interpolation-filters="sRGB">
<feFlood flood-opacity="0" result="BackgroundImageFix"/>
<feColorMatrix in="SourceAlpha" type="matrix" values="0 0 0 0 0 0 0 0 0 0 0 0 0 0 0 0 0 0 127 0" result="hardAlpha"/>
<feOffset dy="-0.569207"/>
<feGaussianBlur stdDeviation="0.284604"/>
<feColorMatrix type="matrix" values="0 0 0 0 0.78755 0 0 0 0 0.78755 0 0 0 0 0.78755 0 0 0 0.19 0"/>
<feBlend mode="normal" in2="BackgroundImageFix" result="effect1_dropShadow_2187_13772"/>
<feBlend mode="normal" in="SourceGraphic" in2="effect1_dropShadow_2187_13772" result="shape"/>
<feColorMatrix in="SourceAlpha" type="matrix" values="0 0 0 0 0 0 0 0 0 0 0 0 0 0 0 0 0 0 127 0" result="hardAlpha"/>
<feOffset dy="2.84604"/>
<feGaussianBlur stdDeviation="1.42302"/>
<feComposite in2="hardAlpha" operator="arithmetic" k2="-1" k3="1"/>
<feColorMatrix type="matrix" values="0 0 0 0 0 0 0 0 0 0 0 0 0 0 0 0 0 0 0.74 0"/>
<feBlend mode="normal" in2="shape" result="effect2_innerShadow_2187_13772"/>
</filter>
<filter id="filter18_f_2187_13772" x="188.976" y="119.004" width="87.0694" height="62.2547" filterUnits="userSpaceOnUse" color-interpolation-filters="sRGB">
<feFlood flood-opacity="0" result="BackgroundImageFix"/>
<feBlend mode="normal" in="SourceGraphic" in2="BackgroundImageFix" result="shape"/>
<feGaussianBlur stdDeviation="3.44294" result="effect1_foregroundBlur_2187_13772"/>
</filter>
<filter id="filter19_f_2187_13772" x="39.1476" y="127.061" width="90.4881" height="64.5511" filterUnits="userSpaceOnUse" color-interpolation-filters="sRGB">
<feFlood flood-opacity="0" result="BackgroundImageFix"/>
<feBlend mode="normal" in="SourceGraphic" in2="BackgroundImageFix" result="shape"/>
<feGaussianBlur stdDeviation="5.73823" result="effect1_foregroundBlur_2187_13772"/>
</filter>
<filter id="filter20_ddii_2187_13772" x="42.5984" y="137.039" width="96.5858" height="59.761" filterUnits="userSpaceOnUse" color-interpolation-filters="sRGB">
<feFlood flood-opacity="0" result="BackgroundImageFix"/>
<feColorMatrix in="SourceAlpha" type="matrix" values="0 0 0 0 0 0 0 0 0 0 0 0 0 0 0 0 0 0 127 0" result="hardAlpha"/>
<feOffset dy="1.07131"/>
<feGaussianBlur stdDeviation="0.714204"/>
<feColorMatrix type="matrix" values="0 0 0 0 0 0 0 0 0 0 0 0 0 0 0 0 0 0 0.57 0"/>
<feBlend mode="normal" in2="BackgroundImageFix" result="effect1_dropShadow_2187_13772"/>
<feColorMatrix in="SourceAlpha" type="matrix" values="0 0 0 0 0 0 0 0 0 0 0 0 0 0 0 0 0 0 127 0" result="hardAlpha"/>
<feOffset dy="-0.714204"/>
<feGaussianBlur stdDeviation="0.714204"/>
<feColorMatrix type="matrix" values="0 0 0 0 0 0 0 0 0 0 0 0 0 0 0 0 0 0 1 0"/>
<feBlend mode="normal" in2="effect1_dropShadow_2187_13772" result="effect2_dropShadow_2187_13772"/>
<feBlend mode="normal" in="SourceGraphic" in2="effect2_dropShadow_2187_13772" result="shape"/>
<feColorMatrix in="SourceAlpha" type="matrix" values="0 0 0 0 0 0 0 0 0 0 0 0 0 0 0 0 0 0 127 0" result="hardAlpha"/>
<feOffset dy="9.84614"/>
<feGaussianBlur stdDeviation="10.0343"/>
<feComposite in2="hardAlpha" operator="arithmetic" k2="-1" k3="1"/>
<feColorMatrix type="matrix" values="0 0 0 0 0 0 0 0 0 0 0 0 0 0 0 0 0 0 1 0"/>
<feBlend mode="normal" in2="shape" result="effect3_innerShadow_2187_13772"/>
<feColorMatrix in="SourceAlpha" type="matrix" values="0 0 0 0 0 0 0 0 0 0 0 0 0 0 0 0 0 0 127 0" result="hardAlpha"/>
<feOffset dy="-1.07294"/>
<feGaussianBlur stdDeviation="1.07294"/>
<feComposite in2="hardAlpha" operator="arithmetic" k2="-1" k3="1"/>
<feColorMatrix type="matrix" values="0 0 0 0 0 0 0 0 0 0 0 0 0 0 0 0 0 0 1 0"/>
<feBlend mode="normal" in2="effect3_innerShadow_2187_13772" result="effect4_innerShadow_2187_13772"/>
</filter>
<filter id="filter21_d_2187_13772" x="97.5759" y="169.137" width="31.4308" height="13.4115" filterUnits="userSpaceOnUse" color-interpolation-filters="sRGB">
<feFlood flood-opacity="0" result="BackgroundImageFix"/>
<feColorMatrix in="SourceAlpha" type="matrix" values="0 0 0 0 0 0 0 0 0 0 0 0 0 0 0 0 0 0 127 0" result="hardAlpha"/>
<feOffset dx="1.13841" dy="1.41412"/>
<feGaussianBlur stdDeviation="0.707062"/>
<feColorMatrix type="matrix" values="0 0 0 0 1 0 0 0 0 1 0 0 0 0 1 0 0 0 0.24 0"/>
<feBlend mode="normal" in2="BackgroundImageFix" result="effect1_dropShadow_2187_13772"/>
<feBlend mode="normal" in="SourceGraphic" in2="effect1_dropShadow_2187_13772" result="shape"/>
</filter>
<filter id="filter22_d_2187_13772" x="45.8771" y="140.742" width="11.0411" height="13.2106" filterUnits="userSpaceOnUse" color-interpolation-filters="sRGB">
<feFlood flood-opacity="0" result="BackgroundImageFix"/>
<feColorMatrix in="SourceAlpha" type="matrix" values="0 0 0 0 0 0 0 0 0 0 0 0 0 0 0 0 0 0 127 0" result="hardAlpha"/>
<feOffset dx="1.13841" dy="1.41412"/>
<feGaussianBlur stdDeviation="0.707062"/>
<feColorMatrix type="matrix" values="0 0 0 0 1 0 0 0 0 1 0 0 0 0 1 0 0 0 0.24 0"/>
<feBlend mode="normal" in2="BackgroundImageFix" result="effect1_dropShadow_2187_13772"/>
<feBlend mode="normal" in="SourceGraphic" in2="effect1_dropShadow_2187_13772" result="shape"/>
</filter>
<linearGradient id="paint0_linear_2187_13772" x1="106.429" y1="167.383" x2="403.787" y2="156.058" gradientUnits="userSpaceOnUse">
<stop stop-color="#42BBFF"/>
<stop offset="1" stop-color="#4E4E4E" stop-opacity="0"/>
</linearGradient>
<linearGradient id="paint1_linear_2187_13772" x1="28.3542" y1="31.1522" x2="29.7662" y2="10.1509" gradientUnits="userSpaceOnUse">
<stop stop-color="#3F3F3F"/>
<stop offset="1" stop-color="#5C5C5C"/>
</linearGradient>
<linearGradient id="paint2_linear_2187_13772" x1="26.5736" y1="30.0427" x2="27.9745" y2="9.7947" gradientUnits="userSpaceOnUse">
<stop stop-color="#AAAAAA"/>
<stop offset="1" stop-color="#C2C2C2"/>
</linearGradient>
<linearGradient id="paint3_linear_2187_13772" x1="23.4176" y1="25.7236" x2="24.5833" y2="8.38196" gradientUnits="userSpaceOnUse">
<stop stop-color="#3F3F3F"/>
<stop offset="1" stop-color="#5C5C5C"/>
</linearGradient>
<linearGradient id="paint4_linear_2187_13772" x1="21.969" y1="24.8374" x2="23.1272" y2="8.09767" gradientUnits="userSpaceOnUse">
<stop stop-color="#AAAAAA"/>
<stop offset="1" stop-color="#C2C2C2"/>
</linearGradient>
<linearGradient id="paint5_linear_2187_13772" x1="157.816" y1="207.232" x2="37.402" y2="60.5056" gradientUnits="userSpaceOnUse">
<stop stop-color="#F3F3F3"/>
<stop offset="0.114583" stop-color="#F0F0F0"/>
<stop offset="1" stop-color="white"/>
</linearGradient>
<linearGradient id="paint6_linear_2187_13772" x1="146.528" y1="23.9057" x2="215.133" y2="88.8094" gradientUnits="userSpaceOnUse">
<stop stop-color="#E8EAE9"/>
<stop offset="0.498386" stop-color="#707072"/>
<stop offset="1" stop-color="#2F3032"/>
</linearGradient>
<linearGradient id="paint7_linear_2187_13772" x1="259.159" y1="241.344" x2="193.614" y2="121.566" gradientUnits="userSpaceOnUse">
<stop stop-color="#E8EAE9"/>
<stop offset="0.498386" stop-color="#707072"/>
<stop offset="1" stop-color="#2F3032"/>
</linearGradient>
<linearGradient id="paint8_linear_2187_13772" x1="287.114" y1="117.552" x2="250.567" y2="64.0712" gradientUnits="userSpaceOnUse">
<stop stop-color="#E8EAE9"/>
<stop offset="0.498386" stop-color="#707072"/>
<stop offset="1" stop-color="#2F3032"/>
</linearGradient>
<linearGradient id="paint9_linear_2187_13772" x1="145.056" y1="168.827" x2="136.541" y2="143.937" gradientUnits="userSpaceOnUse">
<stop stop-color="#ECEAEA"/>
<stop offset="1" stop-color="white" stop-opacity="0"/>
</linearGradient>
<linearGradient id="paint10_linear_2187_13772" x1="48.3082" y1="124.484" x2="80.4341" y2="135.694" gradientUnits="userSpaceOnUse">
<stop stop-color="#ECEAEA"/>
<stop offset="1" stop-color="white" stop-opacity="0"/>
</linearGradient>
<linearGradient id="paint11_linear_2187_13772" x1="221.45" y1="173.092" x2="211.784" y2="152.53" gradientUnits="userSpaceOnUse">
<stop stop-color="#040404"/>
<stop offset="1" stop-color="#3C3C3C" stop-opacity="0"/>
</linearGradient>
<linearGradient id="paint12_linear_2187_13772" x1="83.6002" y1="171.862" x2="89.3414" y2="160.699" gradientUnits="userSpaceOnUse">
<stop stop-color="#4B4B4B"/>
<stop offset="0.899322" stop-opacity="0"/>
</linearGradient>
</defs>
</svg>
