<svg width="463" height="179" viewBox="0 0 463 179" fill="none" xmlns="http://www.w3.org/2000/svg">
<path d="M0 156.461H463" stroke="#CCCCCC"/>
<line x1="313.639" y1="19.1956" x2="313.639" y2="156.904" stroke="#DDDDDD"/>
<path d="M183.813 19.1956L183.813 156.904" stroke="#DDDDDD"/>
<path d="M59.4419 18.5767L59.4419 156.285" stroke="#DDDDDD"/>
<path d="M294.897 168.273V177H293.841V169.381H293.789L291.659 170.795V169.722L293.841 168.273H294.897ZM297.407 177V176.233L300.288 173.08C300.626 172.71 300.904 172.389 301.123 172.116C301.342 171.841 301.504 171.582 301.609 171.341C301.717 171.097 301.771 170.841 301.771 170.574C301.771 170.267 301.697 170.001 301.549 169.777C301.404 169.553 301.206 169.379 300.953 169.257C300.7 169.135 300.416 169.074 300.1 169.074C299.765 169.074 299.473 169.143 299.223 169.283C298.975 169.419 298.784 169.611 298.647 169.858C298.514 170.105 298.447 170.395 298.447 170.727H297.441C297.441 170.216 297.559 169.767 297.795 169.381C298.031 168.994 298.352 168.693 298.758 168.477C299.167 168.261 299.626 168.153 300.135 168.153C300.646 168.153 301.099 168.261 301.494 168.477C301.889 168.693 302.199 168.984 302.423 169.351C302.647 169.717 302.76 170.125 302.76 170.574C302.76 170.895 302.701 171.209 302.585 171.516C302.471 171.82 302.272 172.159 301.988 172.534C301.707 172.906 301.316 173.361 300.816 173.898L298.856 175.994V176.062H302.913V177H297.407ZM305.423 175.884C305.213 175.884 305.032 175.808 304.882 175.658C304.731 175.507 304.656 175.327 304.656 175.116C304.656 174.906 304.731 174.726 304.882 174.575C305.032 174.425 305.213 174.349 305.423 174.349C305.633 174.349 305.814 174.425 305.964 174.575C306.115 174.726 306.19 174.906 306.19 175.116C306.19 175.256 306.154 175.384 306.083 175.5C306.015 175.616 305.923 175.71 305.806 175.781C305.693 175.849 305.565 175.884 305.423 175.884ZM305.423 171.469C305.213 171.469 305.032 171.393 304.882 171.243C304.731 171.092 304.656 170.912 304.656 170.702C304.656 170.491 304.731 170.311 304.882 170.161C305.032 170.01 305.213 169.935 305.423 169.935C305.633 169.935 305.814 170.01 305.964 170.161C306.115 170.311 306.19 170.491 306.19 170.702C306.19 170.841 306.154 170.969 306.083 171.085C306.015 171.202 305.923 171.295 305.806 171.366C305.693 171.435 305.565 171.469 305.423 171.469ZM310.824 177.119C310.182 177.119 309.635 176.945 309.184 176.595C308.732 176.243 308.387 175.733 308.148 175.065C307.909 174.395 307.79 173.585 307.79 172.636C307.79 171.693 307.909 170.888 308.148 170.22C308.39 169.55 308.736 169.038 309.188 168.686C309.642 168.331 310.188 168.153 310.824 168.153C311.461 168.153 312.005 168.331 312.456 168.686C312.911 169.038 313.257 169.55 313.496 170.22C313.738 170.888 313.858 171.693 313.858 172.636C313.858 173.585 313.739 174.395 313.5 175.065C313.262 175.733 312.917 176.243 312.465 176.595C312.013 176.945 311.466 177.119 310.824 177.119ZM310.824 176.182C311.461 176.182 311.955 175.875 312.307 175.261C312.659 174.648 312.836 173.773 312.836 172.636C312.836 171.881 312.755 171.237 312.593 170.706C312.434 170.175 312.203 169.77 311.902 169.491C311.604 169.213 311.245 169.074 310.824 169.074C310.194 169.074 309.701 169.385 309.346 170.007C308.99 170.626 308.813 171.503 308.813 172.636C308.813 173.392 308.892 174.034 309.051 174.562C309.211 175.091 309.439 175.493 309.738 175.768C310.039 176.044 310.401 176.182 310.824 176.182ZM318.324 177.119C317.682 177.119 317.135 176.945 316.684 176.595C316.232 176.243 315.887 175.733 315.648 175.065C315.409 174.395 315.29 173.585 315.29 172.636C315.29 171.693 315.409 170.888 315.648 170.22C315.89 169.55 316.236 169.038 316.688 168.686C317.142 168.331 317.688 168.153 318.324 168.153C318.961 168.153 319.505 168.331 319.956 168.686C320.411 169.038 320.757 169.55 320.996 170.22C321.238 170.888 321.358 171.693 321.358 172.636C321.358 173.585 321.239 174.395 321 175.065C320.762 175.733 320.417 176.243 319.965 176.595C319.513 176.945 318.966 177.119 318.324 177.119ZM318.324 176.182C318.961 176.182 319.455 175.875 319.807 175.261C320.159 174.648 320.336 173.773 320.336 172.636C320.336 171.881 320.255 171.237 320.093 170.706C319.934 170.175 319.703 169.77 319.402 169.491C319.104 169.213 318.745 169.074 318.324 169.074C317.694 169.074 317.201 169.385 316.846 170.007C316.49 170.626 316.313 171.503 316.313 172.636C316.313 173.392 316.392 174.034 316.551 174.562C316.711 175.091 316.939 175.493 317.238 175.768C317.539 176.044 317.901 176.182 318.324 176.182Z" fill="black"/>
<path d="M416.88 168.273V177H415.823V169.381H415.772L413.641 170.795V169.722L415.823 168.273H416.88ZM422.117 177.119C421.617 177.119 421.167 177.02 420.766 176.821C420.366 176.622 420.045 176.349 419.803 176.003C419.562 175.656 419.43 175.261 419.407 174.818H420.43C420.469 175.213 420.648 175.54 420.966 175.798C421.287 176.054 421.671 176.182 422.117 176.182C422.475 176.182 422.793 176.098 423.072 175.93C423.353 175.763 423.573 175.533 423.732 175.24C423.894 174.945 423.975 174.611 423.975 174.239C423.975 173.858 423.891 173.518 423.724 173.22C423.559 172.919 423.331 172.682 423.042 172.509C422.752 172.335 422.421 172.247 422.049 172.244C421.782 172.241 421.508 172.283 421.226 172.368C420.945 172.45 420.714 172.557 420.532 172.688L419.543 172.568L420.072 168.273H424.606V169.21H420.958L420.651 171.784H420.702C420.881 171.642 421.106 171.524 421.376 171.43C421.645 171.337 421.927 171.29 422.219 171.29C422.753 171.29 423.229 171.418 423.647 171.673C424.067 171.926 424.397 172.273 424.635 172.713C424.877 173.153 424.998 173.656 424.998 174.222C424.998 174.778 424.873 175.276 424.623 175.713C424.376 176.148 424.035 176.491 423.6 176.744C423.165 176.994 422.671 177.119 422.117 177.119ZM427.441 175.884C427.23 175.884 427.05 175.808 426.899 175.658C426.749 175.507 426.673 175.327 426.673 175.116C426.673 174.906 426.749 174.726 426.899 174.575C427.05 174.425 427.23 174.349 427.441 174.349C427.651 174.349 427.831 174.425 427.982 174.575C428.132 174.726 428.208 174.906 428.208 175.116C428.208 175.256 428.172 175.384 428.101 175.5C428.033 175.616 427.941 175.71 427.824 175.781C427.71 175.849 427.583 175.884 427.441 175.884ZM427.441 171.469C427.23 171.469 427.05 171.393 426.899 171.243C426.749 171.092 426.673 170.912 426.673 170.702C426.673 170.491 426.749 170.311 426.899 170.161C427.05 170.01 427.23 169.935 427.441 169.935C427.651 169.935 427.831 170.01 427.982 170.161C428.132 170.311 428.208 170.491 428.208 170.702C428.208 170.841 428.172 170.969 428.101 171.085C428.033 171.202 427.941 171.295 427.824 171.366C427.71 171.435 427.583 171.469 427.441 171.469ZM432.842 177.119C432.2 177.119 431.653 176.945 431.201 176.595C430.749 176.243 430.404 175.733 430.166 175.065C429.927 174.395 429.808 173.585 429.808 172.636C429.808 171.693 429.927 170.888 430.166 170.22C430.407 169.55 430.754 169.038 431.205 168.686C431.66 168.331 432.205 168.153 432.842 168.153C433.478 168.153 434.022 168.331 434.474 168.686C434.928 169.038 435.275 169.55 435.514 170.22C435.755 170.888 435.876 171.693 435.876 172.636C435.876 173.585 435.757 174.395 435.518 175.065C435.279 175.733 434.934 176.243 434.482 176.595C434.031 176.945 433.484 177.119 432.842 177.119ZM432.842 176.182C433.478 176.182 433.972 175.875 434.325 175.261C434.677 174.648 434.853 173.773 434.853 172.636C434.853 171.881 434.772 171.237 434.61 170.706C434.451 170.175 434.221 169.77 433.92 169.491C433.622 169.213 433.262 169.074 432.842 169.074C432.211 169.074 431.718 169.385 431.363 170.007C431.008 170.626 430.83 171.503 430.83 172.636C430.83 173.392 430.91 174.034 431.069 174.562C431.228 175.091 431.457 175.493 431.755 175.768C432.056 176.044 432.419 176.182 432.842 176.182ZM440.342 177.119C439.7 177.119 439.153 176.945 438.701 176.595C438.249 176.243 437.904 175.733 437.666 175.065C437.427 174.395 437.308 173.585 437.308 172.636C437.308 171.693 437.427 170.888 437.666 170.22C437.907 169.55 438.254 169.038 438.705 168.686C439.16 168.331 439.705 168.153 440.342 168.153C440.978 168.153 441.522 168.331 441.974 168.686C442.428 169.038 442.775 169.55 443.014 170.22C443.255 170.888 443.376 171.693 443.376 172.636C443.376 173.585 443.257 174.395 443.018 175.065C442.779 175.733 442.434 176.243 441.982 176.595C441.531 176.945 440.984 177.119 440.342 177.119ZM440.342 176.182C440.978 176.182 441.472 175.875 441.825 175.261C442.177 174.648 442.353 173.773 442.353 172.636C442.353 171.881 442.272 171.237 442.11 170.706C441.951 170.175 441.721 169.77 441.42 169.491C441.122 169.213 440.762 169.074 440.342 169.074C439.711 169.074 439.218 169.385 438.863 170.007C438.508 170.626 438.33 171.503 438.33 172.636C438.33 173.392 438.41 174.034 438.569 174.562C438.728 175.091 438.957 175.493 439.255 175.768C439.556 176.044 439.919 176.182 440.342 176.182Z" fill="black"/>
<path d="M170.604 177.119C169.961 177.119 169.415 176.945 168.963 176.595C168.511 176.243 168.166 175.733 167.927 175.065C167.689 174.395 167.569 173.585 167.569 172.636C167.569 171.693 167.689 170.888 167.927 170.22C168.169 169.55 168.515 169.038 168.967 168.686C169.422 168.331 169.967 168.153 170.604 168.153C171.24 168.153 171.784 168.331 172.236 168.686C172.69 169.038 173.037 169.55 173.275 170.22C173.517 170.888 173.638 171.693 173.638 172.636C173.638 173.585 173.518 174.395 173.28 175.065C173.041 175.733 172.696 176.243 172.244 176.595C171.792 176.945 171.246 177.119 170.604 177.119ZM170.604 176.182C171.24 176.182 171.734 175.875 172.086 175.261C172.439 174.648 172.615 173.773 172.615 172.636C172.615 171.881 172.534 171.237 172.372 170.706C172.213 170.175 171.983 169.77 171.682 169.491C171.383 169.213 171.024 169.074 170.604 169.074C169.973 169.074 169.48 169.385 169.125 170.007C168.77 170.626 168.592 171.503 168.592 172.636C168.592 173.392 168.672 174.034 168.831 174.562C168.99 175.091 169.219 175.493 169.517 175.768C169.818 176.044 170.18 176.182 170.604 176.182ZM178.035 168.153C178.393 168.156 178.751 168.224 179.109 168.358C179.467 168.491 179.794 168.713 180.089 169.023C180.385 169.33 180.622 169.749 180.801 170.28C180.98 170.811 181.069 171.477 181.069 172.278C181.069 173.054 180.996 173.743 180.848 174.345C180.703 174.945 180.493 175.45 180.217 175.862C179.944 176.274 179.612 176.587 179.22 176.8C178.831 177.013 178.39 177.119 177.899 177.119C177.41 177.119 176.974 177.023 176.591 176.83C176.21 176.634 175.898 176.362 175.653 176.016C175.412 175.666 175.257 175.261 175.189 174.801H176.229C176.322 175.202 176.508 175.533 176.787 175.794C177.068 176.053 177.439 176.182 177.899 176.182C178.572 176.182 179.104 175.888 179.493 175.3C179.885 174.712 180.081 173.881 180.081 172.807H180.013C179.854 173.045 179.665 173.251 179.446 173.425C179.227 173.598 178.984 173.732 178.717 173.825C178.45 173.919 178.166 173.966 177.865 173.966C177.365 173.966 176.906 173.842 176.488 173.595C176.074 173.345 175.741 173.003 175.491 172.568C175.244 172.131 175.121 171.631 175.121 171.068C175.121 170.534 175.24 170.045 175.479 169.602C175.72 169.156 176.058 168.801 176.493 168.537C176.93 168.273 177.444 168.145 178.035 168.153ZM178.035 169.091C177.677 169.091 177.355 169.18 177.068 169.359C176.784 169.536 176.558 169.774 176.39 170.075C176.226 170.374 176.143 170.705 176.143 171.068C176.143 171.432 176.223 171.763 176.382 172.061C176.544 172.357 176.764 172.592 177.042 172.768C177.324 172.942 177.643 173.028 178.001 173.028C178.271 173.028 178.523 172.976 178.756 172.871C178.988 172.763 179.192 172.616 179.365 172.432C179.541 172.244 179.679 172.033 179.778 171.797C179.878 171.558 179.927 171.31 179.927 171.051C179.927 170.71 179.845 170.391 179.68 170.092C179.518 169.794 179.294 169.553 179.007 169.368C178.723 169.183 178.399 169.091 178.035 169.091ZM183.495 175.884C183.285 175.884 183.105 175.808 182.954 175.658C182.803 175.507 182.728 175.327 182.728 175.116C182.728 174.906 182.803 174.726 182.954 174.575C183.105 174.425 183.285 174.349 183.495 174.349C183.705 174.349 183.886 174.425 184.036 174.575C184.187 174.726 184.262 174.906 184.262 175.116C184.262 175.256 184.227 175.384 184.156 175.5C184.088 175.616 183.995 175.71 183.879 175.781C183.765 175.849 183.637 175.884 183.495 175.884ZM183.495 171.469C183.285 171.469 183.105 171.393 182.954 171.243C182.803 171.092 182.728 170.912 182.728 170.702C182.728 170.491 182.803 170.311 182.954 170.161C183.105 170.01 183.285 169.935 183.495 169.935C183.705 169.935 183.886 170.01 184.036 170.161C184.187 170.311 184.262 170.491 184.262 170.702C184.262 170.841 184.227 170.969 184.156 171.085C184.088 171.202 183.995 171.295 183.879 171.366C183.765 171.435 183.637 171.469 183.495 171.469ZM188.896 177.119C188.254 177.119 187.708 176.945 187.256 176.595C186.804 176.243 186.459 175.733 186.22 175.065C185.982 174.395 185.862 173.585 185.862 172.636C185.862 171.693 185.982 170.888 186.22 170.22C186.462 169.55 186.808 169.038 187.26 168.686C187.715 168.331 188.26 168.153 188.896 168.153C189.533 168.153 190.077 168.331 190.529 168.686C190.983 169.038 191.33 169.55 191.568 170.22C191.81 170.888 191.931 171.693 191.931 172.636C191.931 173.585 191.811 174.395 191.573 175.065C191.334 175.733 190.989 176.243 190.537 176.595C190.085 176.945 189.539 177.119 188.896 177.119ZM188.896 176.182C189.533 176.182 190.027 175.875 190.379 175.261C190.732 174.648 190.908 173.773 190.908 172.636C190.908 171.881 190.827 171.237 190.665 170.706C190.506 170.175 190.276 169.77 189.975 169.491C189.676 169.213 189.317 169.074 188.896 169.074C188.266 169.074 187.773 169.385 187.418 170.007C187.063 170.626 186.885 171.503 186.885 172.636C186.885 173.392 186.965 174.034 187.124 174.562C187.283 175.091 187.512 175.493 187.81 175.768C188.111 176.044 188.473 176.182 188.896 176.182ZM196.396 177.119C195.754 177.119 195.208 176.945 194.756 176.595C194.304 176.243 193.959 175.733 193.72 175.065C193.482 174.395 193.362 173.585 193.362 172.636C193.362 171.693 193.482 170.888 193.72 170.22C193.962 169.55 194.308 169.038 194.76 168.686C195.215 168.331 195.76 168.153 196.396 168.153C197.033 168.153 197.577 168.331 198.029 168.686C198.483 169.038 198.83 169.55 199.068 170.22C199.31 170.888 199.431 171.693 199.431 172.636C199.431 173.585 199.311 174.395 199.073 175.065C198.834 175.733 198.489 176.243 198.037 176.595C197.585 176.945 197.039 177.119 196.396 177.119ZM196.396 176.182C197.033 176.182 197.527 175.875 197.879 175.261C198.232 174.648 198.408 173.773 198.408 172.636C198.408 171.881 198.327 171.237 198.165 170.706C198.006 170.175 197.776 169.77 197.475 169.491C197.176 169.213 196.817 169.074 196.396 169.074C195.766 169.074 195.273 169.385 194.918 170.007C194.563 170.626 194.385 171.503 194.385 172.636C194.385 173.392 194.465 174.034 194.624 174.562C194.783 175.091 195.012 175.493 195.31 175.768C195.611 176.044 195.973 176.182 196.396 176.182Z" fill="black"/>
<path d="M46.1035 178.119C45.4615 178.119 44.9146 177.945 44.4629 177.595C44.0112 177.243 43.666 176.733 43.4274 176.065C43.1887 175.395 43.0694 174.585 43.0694 173.636C43.0694 172.693 43.1887 171.888 43.4274 171.22C43.6689 170.55 44.0154 170.038 44.4672 169.686C44.9217 169.331 45.4672 169.153 46.1035 169.153C46.7399 169.153 47.2839 169.331 47.7356 169.686C48.1902 170.038 48.5368 170.55 48.7754 171.22C49.0169 171.888 49.1376 172.693 49.1376 173.636C49.1376 174.585 49.0183 175.395 48.7797 176.065C48.541 176.733 48.1958 177.243 47.7441 177.595C47.2924 177.945 46.7456 178.119 46.1035 178.119ZM46.1035 177.182C46.7399 177.182 47.2342 176.875 47.5865 176.261C47.9387 175.648 48.1149 174.773 48.1149 173.636C48.1149 172.881 48.0339 172.237 47.872 171.706C47.7129 171.175 47.4828 170.77 47.1816 170.491C46.8833 170.213 46.524 170.074 46.1035 170.074C45.4728 170.074 44.9799 170.385 44.6248 171.007C44.2697 171.626 44.0922 172.503 44.0922 173.636C44.0922 174.392 44.1717 175.034 44.3308 175.562C44.4899 176.091 44.7186 176.493 45.0169 176.768C45.318 177.044 45.6802 177.182 46.1035 177.182ZM53.6547 178.119C53.2967 178.114 52.9387 178.045 52.5808 177.915C52.2228 177.784 51.8961 177.564 51.6007 177.254C51.3052 176.942 51.068 176.52 50.889 175.989C50.71 175.455 50.6206 174.784 50.6206 173.977C50.6206 173.205 50.693 172.52 50.8379 171.923C50.9828 171.324 51.193 170.82 51.4686 170.411C51.7441 169.999 52.0765 169.686 52.4657 169.473C52.8578 169.26 53.2995 169.153 53.791 169.153C54.2797 169.153 54.7143 169.251 55.095 169.447C55.4785 169.641 55.791 169.911 56.0325 170.257C56.274 170.604 56.4302 171.003 56.5012 171.455H55.4615C55.3649 171.062 55.1774 170.737 54.899 170.479C54.6206 170.22 54.2512 170.091 53.791 170.091C53.1149 170.091 52.5822 170.385 52.193 170.973C51.8066 171.561 51.612 172.386 51.6092 173.449H51.6774C51.8365 173.207 52.0254 173.001 52.2441 172.831C52.4657 172.658 52.71 172.524 52.9771 172.43C53.2441 172.337 53.5268 172.29 53.8251 172.29C54.3251 172.29 54.7825 172.415 55.1973 172.665C55.612 172.912 55.9444 173.254 56.1944 173.692C56.4444 174.126 56.5694 174.625 56.5694 175.188C56.5694 175.727 56.4487 176.222 56.2072 176.67C55.9657 177.116 55.6262 177.472 55.1887 177.736C54.7541 177.997 54.2427 178.125 53.6547 178.119ZM53.6547 177.182C54.0126 177.182 54.3336 177.092 54.6177 176.913C54.9047 176.734 55.1305 176.494 55.2953 176.193C55.4629 175.892 55.5467 175.557 55.5467 175.188C55.5467 174.827 55.4657 174.499 55.3038 174.203C55.1447 173.905 54.9245 173.668 54.6433 173.491C54.3649 173.315 54.0467 173.227 53.6887 173.227C53.4189 173.227 53.1674 173.281 52.9345 173.389C52.7015 173.494 52.497 173.639 52.3208 173.824C52.1475 174.009 52.0112 174.22 51.9118 174.459C51.8123 174.695 51.7626 174.943 51.7626 175.205C51.7626 175.551 51.8436 175.875 52.0055 176.176C52.1703 176.477 52.3947 176.72 52.6788 176.905C52.9657 177.089 53.291 177.182 53.6547 177.182ZM58.9952 176.884C58.785 176.884 58.6046 176.808 58.454 176.658C58.3034 176.507 58.2282 176.327 58.2282 176.116C58.2282 175.906 58.3034 175.726 58.454 175.575C58.6046 175.425 58.785 175.349 58.9952 175.349C59.2054 175.349 59.3858 175.425 59.5364 175.575C59.687 175.726 59.7623 175.906 59.7623 176.116C59.7623 176.256 59.7267 176.384 59.6557 176.5C59.5875 176.616 59.4952 176.71 59.3787 176.781C59.2651 176.849 59.1373 176.884 58.9952 176.884ZM58.9952 172.469C58.785 172.469 58.6046 172.393 58.454 172.243C58.3034 172.092 58.2282 171.912 58.2282 171.702C58.2282 171.491 58.3034 171.311 58.454 171.161C58.6046 171.01 58.785 170.935 58.9952 170.935C59.2054 170.935 59.3858 171.01 59.5364 171.161C59.687 171.311 59.7623 171.491 59.7623 171.702C59.7623 171.841 59.7267 171.969 59.6557 172.085C59.5875 172.202 59.4952 172.295 59.3787 172.366C59.2651 172.435 59.1373 172.469 58.9952 172.469ZM64.3965 178.119C63.7544 178.119 63.2076 177.945 62.7559 177.595C62.3042 177.243 61.959 176.733 61.7203 176.065C61.4817 175.395 61.3624 174.585 61.3624 173.636C61.3624 172.693 61.4817 171.888 61.7203 171.22C61.9618 170.55 62.3084 170.038 62.7601 169.686C63.2147 169.331 63.7601 169.153 64.3965 169.153C65.0328 169.153 65.5769 169.331 66.0286 169.686C66.4831 170.038 66.8297 170.55 67.0684 171.22C67.3098 171.888 67.4306 172.693 67.4306 173.636C67.4306 174.585 67.3113 175.395 67.0726 176.065C66.834 176.733 66.4888 177.243 66.0371 177.595C65.5854 177.945 65.0385 178.119 64.3965 178.119ZM64.3965 177.182C65.0328 177.182 65.5272 176.875 65.8794 176.261C66.2317 175.648 66.4078 174.773 66.4078 173.636C66.4078 172.881 66.3269 172.237 66.165 171.706C66.0059 171.175 65.7757 170.77 65.4746 170.491C65.1763 170.213 64.8169 170.074 64.3965 170.074C63.7658 170.074 63.2729 170.385 62.9178 171.007C62.5627 171.626 62.3851 172.503 62.3851 173.636C62.3851 174.392 62.4647 175.034 62.6238 175.562C62.7828 176.091 63.0115 176.493 63.3098 176.768C63.611 177.044 63.9732 177.182 64.3965 177.182ZM71.8965 178.119C71.2544 178.119 70.7076 177.945 70.2559 177.595C69.8042 177.243 69.459 176.733 69.2203 176.065C68.9817 175.395 68.8624 174.585 68.8624 173.636C68.8624 172.693 68.9817 171.888 69.2203 171.22C69.4618 170.55 69.8084 170.038 70.2601 169.686C70.7147 169.331 71.2601 169.153 71.8965 169.153C72.5328 169.153 73.0769 169.331 73.5286 169.686C73.9831 170.038 74.3297 170.55 74.5684 171.22C74.8098 171.888 74.9306 172.693 74.9306 173.636C74.9306 174.585 74.8113 175.395 74.5726 176.065C74.334 176.733 73.9888 177.243 73.5371 177.595C73.0854 177.945 72.5385 178.119 71.8965 178.119ZM71.8965 177.182C72.5328 177.182 73.0272 176.875 73.3794 176.261C73.7317 175.648 73.9078 174.773 73.9078 173.636C73.9078 172.881 73.8269 172.237 73.665 171.706C73.5059 171.175 73.2757 170.77 72.9746 170.491C72.6763 170.213 72.3169 170.074 71.8965 170.074C71.2658 170.074 70.7729 170.385 70.4178 171.007C70.0627 171.626 69.8851 172.503 69.8851 173.636C69.8851 174.392 69.9647 175.034 70.1238 175.562C70.2828 176.091 70.5115 176.493 70.8098 176.768C71.111 177.044 71.4732 177.182 71.8965 177.182Z" fill="black"/>
<line x1="444.488" y1="1.84377e-08" x2="444.488" y2="165.25" stroke="#FFA4A4"/>
<path d="M400.5 78L444 27V155.5H21V106L60.5 48L100 78H146L184 56.5L225.5 78H273L314 56.5L360.5 93.5L400.5 78Z" fill="url(#paint0_linear_2194_2133)"/>
<path d="M445 27L400.5 79L359 94.5L314 56L273.5 79H225.5L184 56L144.5 79H100L60.5 49L21 107" stroke="#4A88FF"/>
<defs>
<linearGradient id="paint0_linear_2194_2133" x1="232" y1="40" x2="232.5" y2="155.5" gradientUnits="userSpaceOnUse">
<stop offset="0.085" stop-color="#4A88FF"/>
<stop offset="1" stop-color="white" stop-opacity="0"/>
</linearGradient>
</defs>
</svg>
